<svg width="22" height="22" viewBox="0 0 22 22" fill="none" xmlns="http://www.w3.org/2000/svg">
<path d="M11 0C4.92485 0 0 4.92485 0 11C0 17.0752 4.92485 22 11 22C17.0752 22 22 17.0752 22 11C22 4.92485 17.0752 0 11 0ZM3.02896 16.3526C2.89791 16.3685 2.76749 16.3789 2.63861 16.385C2.59464 16.3871 2.5509 16.3883 2.50734 16.389C1.51683 14.8313 0.942737 12.9827 0.942737 11C0.942737 5.44551 5.44551 0.9427 11 0.9427C16.3978 0.9427 20.8018 5.19508 21.0461 10.5325C20.953 10.7919 20.8506 11.048 20.7386 11.2991C20.5045 11.8214 20.2303 12.3248 19.9001 12.7803C19.7356 13.0084 19.5558 13.2228 19.3615 13.4189C19.2639 13.5164 19.1626 13.6092 19.0576 13.6964C18.9523 13.7831 18.8427 13.8629 18.7298 13.9363C18.6171 14.01 18.4999 14.0753 18.3796 14.1318C18.2592 14.1881 18.1361 14.2381 18.0096 14.2758C17.8834 14.3139 17.7547 14.3431 17.6244 14.3632C17.5592 14.3709 17.4922 14.3806 17.4316 14.3836L17.3851 14.3873C17.3709 14.3889 17.3494 14.3885 17.3319 14.3892L17.2292 14.3917C17.1727 14.3916 17.1163 14.3901 17.0601 14.3877C17.3536 14.0612 17.6217 13.7097 17.8546 13.3298C18.0119 13.0706 18.152 12.7973 18.2603 12.5023C18.3142 12.3548 18.3598 12.2015 18.391 12.0397C18.4219 11.878 18.4396 11.7075 18.4253 11.5247C18.4179 11.4335 18.402 11.339 18.3714 11.2431C18.3416 11.1476 18.2964 11.0506 18.2328 10.9614C18.17 10.872 18.0875 10.7928 17.997 10.7321C17.9061 10.6719 17.808 10.6287 17.7122 10.6022C17.6162 10.575 17.522 10.5614 17.4315 10.5563C17.4086 10.5546 17.3864 10.5543 17.3641 10.5539L17.3474 10.5537H17.3265L17.2997 10.5542L17.2729 10.5548L17.2401 10.5563C17.2178 10.5577 17.1935 10.5584 17.173 10.5606C17.0033 10.5743 16.8277 10.6114 16.6596 10.6832C16.4918 10.7543 16.3334 10.8608 16.2057 10.9926C16.0767 11.1238 15.9785 11.2766 15.9057 11.4332C15.8972 11.4515 15.8892 11.4699 15.8814 11.4883C15.8588 11.463 15.8357 11.4379 15.8111 11.4136C15.6798 11.2836 15.5141 11.1702 15.3249 11.105C15.2309 11.0721 15.1325 11.0514 15.0348 11.0426C14.9857 11.0384 14.9378 11.0363 14.8887 11.0379L14.8646 11.0392L14.8382 11.0412C14.8233 11.043 14.8084 11.0446 14.7934 11.0469C14.7635 11.0518 14.7335 11.0579 14.704 11.0663C14.5849 11.0986 14.4745 11.1622 14.3883 11.2394C14.3012 11.3166 14.2367 11.4053 14.1871 11.4943C14.0888 11.6736 14.0452 11.8552 14.0241 12.0311C13.9852 12.3834 14.038 12.7209 14.1424 13.0375C14.2481 13.3539 14.4117 13.6489 14.6219 13.9063C14.8319 14.1639 15.0891 14.3824 15.373 14.5501C15.4752 14.6107 15.5808 14.6645 15.6885 14.7122C15.0231 15.2428 14.2769 15.674 13.4868 15.9878C12.9769 16.1883 12.4496 16.3433 11.9123 16.4459C11.375 16.5473 10.8285 16.6005 10.2827 16.6046C10.006 16.6061 9.74138 16.5969 9.4758 16.5682C9.3434 16.5545 9.21188 16.5363 9.0816 16.5133C8.95107 16.4915 8.82218 16.4634 8.69444 16.4323C8.22265 16.3163 7.77282 16.1355 7.3623 15.8947C7.87728 15.616 8.37727 15.3117 8.86413 14.9877C9.83811 14.3347 10.7604 13.5983 11.585 12.7501C11.9969 12.3261 12.3841 11.8741 12.7328 11.3887C12.9074 11.1463 13.0715 10.8949 13.2238 10.6352C13.3754 10.375 13.5139 10.1057 13.637 9.82777C13.8823 9.27212 14.061 8.67728 14.1366 8.06113C14.1554 7.90724 14.1684 7.75232 14.1735 7.59682C14.1743 7.55792 14.1758 7.51905 14.1761 7.48015L14.176 7.35401L14.1722 7.24687L14.1701 7.1933L14.1689 7.16602L14.1665 7.135L14.1563 7.01107L14.1508 6.9494L14.1431 6.8904L14.1271 6.77248C14.1217 6.73325 14.1131 6.69423 14.1061 6.65511C14.0787 6.49858 14.0372 6.34418 13.9912 6.1915C13.8951 5.88694 13.7571 5.59493 13.5868 5.3244L13.52 5.22474L13.4863 5.17513L13.4504 5.12703L13.3785 5.03122L13.302 4.93896L13.2636 4.89306L13.2231 4.84895L13.1421 4.76098L13.057 4.67694L13.0143 4.63518L12.9698 4.5954C12.8533 4.48675 12.7253 4.39179 12.5966 4.2995C12.5301 4.25619 12.4656 4.21018 12.3966 4.1712C12.3625 4.15122 12.3288 4.13039 12.2942 4.11129L12.1895 4.05588C11.9087 3.91116 11.6105 3.80373 11.3055 3.73116C11.2287 3.71562 11.1526 3.69604 11.0751 3.68482L10.9592 3.66575L10.8427 3.65185C10.7652 3.64067 10.6871 3.63807 10.6092 3.63125C10.5703 3.62912 10.5313 3.62861 10.4922 3.62729L10.4337 3.62564L10.4191 3.62523L10.3987 3.6252L10.3719 3.62542L10.2648 3.62622L10.1444 3.63147C10.1034 3.63293 10.0646 3.63612 10.0262 3.63953C9.9876 3.64316 9.94877 3.64536 9.91034 3.65024C9.75605 3.6667 9.60355 3.69325 9.45201 3.7235C8.84664 3.85143 8.27655 4.09501 7.75383 4.40341C7.22916 4.71119 6.7536 5.08996 6.31921 5.50792C5.8861 5.92768 5.49747 6.39155 5.15614 6.88963C4.81525 7.38797 4.52159 7.92136 4.29018 8.48646C4.05768 9.05076 3.88707 9.64759 3.80475 10.2695C3.78429 10.4248 3.77032 10.5819 3.76262 10.7401C3.75804 10.819 3.75661 10.8986 3.7554 10.9781L3.75507 11.0128L3.75518 11.0396L3.75544 11.0932L3.75591 11.1467L3.75617 11.1736L3.75698 11.2031C3.76083 11.3627 3.76772 11.5125 3.77938 11.6659C3.79104 11.8187 3.80607 11.9714 3.82653 12.1239C3.86687 12.4289 3.92656 12.7325 4.00374 13.0328C4.08302 13.3328 4.18143 13.6289 4.30118 13.9177C4.42138 14.2063 4.56346 14.4871 4.72652 14.7563C4.89053 15.025 5.0769 15.2809 5.28264 15.5207C5.33672 15.5831 5.39209 15.6444 5.4487 15.7046C5.42872 15.7124 5.40881 15.7205 5.38879 15.7283C4.87351 15.9272 4.34797 16.0945 3.81971 16.2146C3.55579 16.2743 3.29116 16.3219 3.02896 16.3526ZM16.2227 14.2513C16.1571 14.2513 15.9126 14.1634 15.6342 13.9787C15.4356 13.8534 15.258 13.6983 15.1099 13.5182C14.8409 13.2038 14.63 12.7835 14.63 12.2467C14.63 11.8922 14.7246 11.6572 14.9295 11.6572C14.9744 11.6572 15.0215 11.6652 15.0697 11.6789C15.0867 11.6831 15.1035 11.6878 15.1199 11.6936C15.1452 11.7023 15.1699 11.7131 15.1942 11.7255C15.5924 11.9091 16.0206 12.3994 16.0206 12.3994C16.0206 12.3994 16.3679 11.1833 17.3067 11.1833C17.4364 11.1833 17.5321 11.2055 17.6025 11.2425C17.6074 11.245 17.6124 11.2475 17.617 11.2501C17.6211 11.2525 17.6249 11.255 17.6288 11.2575C17.6344 11.2611 17.6397 11.2647 17.6449 11.2686C17.7453 11.3416 17.7776 11.4538 17.7776 11.5744C17.7845 11.677 17.773 11.7936 17.7484 11.912C17.7479 11.9142 17.7473 11.9165 17.7468 11.9188C17.5293 13.1698 16.2227 14.2513 16.2227 14.2513ZM6.50225 15.2439C6.36475 15.1117 6.23535 14.9711 6.1149 14.8231C6.03471 14.7234 5.9583 14.6206 5.8857 14.515C5.81339 14.4092 5.74603 14.2999 5.6815 14.1889C5.5528 13.9664 5.44122 13.7331 5.34578 13.4922C5.15431 13.0107 5.02843 12.4986 4.96151 11.9748C4.94384 11.844 4.93086 11.7122 4.92067 11.5799C4.91047 11.4483 4.90446 11.3124 4.9012 11.1863L4.89852 10.9825C4.89903 10.9191 4.89933 10.8558 4.90252 10.792C4.90732 10.6646 4.91762 10.5366 4.93302 10.4084C4.99044 9.89483 5.12226 9.37981 5.3024 8.87839C5.39334 8.62785 5.49564 8.37987 5.61165 8.13743C5.72561 7.89397 5.85402 7.65662 5.99071 7.42372C6.26553 6.95867 6.58603 6.51853 6.94709 6.11549C7.12837 5.91488 7.3194 5.72279 7.52239 5.54536C7.72482 5.36727 7.93679 5.20054 8.16009 5.05215C8.60556 4.7549 9.09344 4.52335 9.60472 4.39861C9.73247 4.36814 9.86139 4.34309 9.99112 4.32608C10.0235 4.32109 10.056 4.31871 10.0885 4.31486C10.1212 4.31108 10.1536 4.30764 10.1839 4.30599L10.2776 4.29931L10.3848 4.29598L10.4116 4.29517C10.4158 4.2951 10.4165 4.29506 10.4165 4.29502C10.4167 4.29502 10.4169 4.29506 10.418 4.2951L10.4302 4.29532L10.4788 4.29616C10.5112 4.29693 10.5438 4.29675 10.5761 4.29814C10.6406 4.30338 10.7057 4.30408 10.7698 4.31292L10.8662 4.3241L10.9619 4.3399C11.026 4.34892 11.0885 4.36524 11.1518 4.37818C11.6527 4.50047 12.119 4.75559 12.4747 5.11779L12.5085 5.15112L12.5406 5.18617L12.6046 5.25617L12.6649 5.32943L12.695 5.36598L12.7232 5.40412L12.7795 5.48016L12.8319 5.55907L12.8581 5.59838L12.8822 5.63908L12.9304 5.72029C13.0527 5.94077 13.146 6.17643 13.2114 6.42026C13.2421 6.54287 13.2702 6.66622 13.2862 6.79235C13.2903 6.82385 13.2961 6.85494 13.299 6.88666L13.3083 6.98166L13.3131 7.02907L13.3155 7.07428L13.3204 7.16419L13.3217 7.18667L13.322 7.21292L13.3224 7.26653L13.3237 7.37374L13.3214 7.46196L13.317 7.55957C13.3095 7.68966 13.2974 7.81972 13.2793 7.94926C13.2081 8.46809 13.0459 8.97739 12.8258 9.46517C12.6036 9.95265 12.3222 10.4187 12.0014 10.8602C11.6805 11.3019 11.3197 11.7189 10.9328 12.1126C10.5454 12.5063 10.1318 12.8768 9.69925 13.2254C9.26699 13.5745 8.81448 13.9 8.34746 14.2033C7.75423 14.5873 7.13739 14.9373 6.50225 15.2439ZM11 21.0573C7.89873 21.0573 5.12571 19.6532 3.28086 17.4465C3.55395 17.3949 3.8214 17.3317 4.08404 17.2591C4.66426 17.0978 5.22328 16.8946 5.76785 16.665C5.9433 16.5906 6.11706 16.5132 6.28958 16.4336C6.30575 16.4449 6.32181 16.4564 6.33809 16.4675C6.46804 16.5569 6.60158 16.6409 6.7386 16.7181C7.28556 17.0301 7.8815 17.2429 8.48676 17.3648C8.63819 17.395 8.79017 17.4211 8.9426 17.4401C9.09491 17.4602 9.24755 17.4747 9.40009 17.4839C9.55258 17.4943 9.70497 17.4974 9.85703 17.4983L9.97095 17.4974L10.0302 17.4965L10.0838 17.4949C10.1533 17.4934 10.2309 17.4899 10.307 17.4866C10.904 17.4581 11.4979 17.38 12.0799 17.2475C12.662 17.1167 13.2321 16.9341 13.78 16.7004C14.7769 16.2764 15.7032 15.6889 16.4997 14.9542C16.7424 14.9961 16.9867 15.0147 17.2286 15.0149L17.3471 15.0123C17.3664 15.0116 17.3818 15.0121 17.4044 15.0103L17.4682 15.0058C17.555 15.0012 17.6341 14.9898 17.7153 14.9799C17.8766 14.9552 18.0362 14.919 18.1922 14.8718C18.3484 14.8251 18.4996 14.7639 18.6461 14.6952C18.7927 14.6263 18.9337 14.5475 19.0679 14.4599C19.2024 14.3726 19.3314 14.2784 19.4538 14.1776C19.5758 14.0764 19.6921 13.9697 19.8031 13.8588C20.0241 13.6359 20.2241 13.3965 20.4047 13.1462C20.6212 12.8473 20.8122 12.5344 20.9842 12.2132C20.3852 17.1955 16.1439 21.0573 11 21.0573Z" fill="black"/>
</svg>
