<svg width="792" height="792" viewBox="0 0 792 792" fill="none" xmlns="http://www.w3.org/2000/svg">
<path d="M396 96C230.314 96 96 230.314 96 396C96 561.686 230.314 696 396 696C561.686 696 696 561.686 696 396C696 230.314 561.686 96 396 96ZM178.608 541.98C175.034 542.413 171.477 542.696 167.962 542.863C166.763 542.921 165.57 542.955 164.382 542.974C137.368 500.49 121.711 450.075 121.711 396C121.711 244.514 244.514 121.71 396 121.71C543.212 121.71 663.322 237.684 669.985 383.25C667.446 390.324 664.654 397.31 661.597 404.157C655.214 418.401 647.735 432.132 638.73 444.555C634.245 450.775 629.341 456.622 624.041 461.97C621.38 464.63 618.617 467.161 615.753 469.537C612.882 471.902 609.892 474.08 606.813 476.081C603.738 478.091 600.544 479.871 597.261 481.412C593.977 482.947 590.622 484.313 587.172 485.341C583.728 486.38 580.219 487.175 576.666 487.724C574.888 487.934 573.06 488.199 571.407 488.281L570.138 488.38C569.752 488.425 569.165 488.413 568.689 488.433L565.888 488.5C564.346 488.499 562.809 488.458 561.276 488.393C569.28 479.486 576.593 469.902 582.943 459.539C587.235 452.472 591.054 445.018 594.008 436.973C595.478 432.948 596.723 428.767 597.574 424.355C598.415 419.945 598.899 415.295 598.507 410.31C598.307 407.823 597.872 405.245 597.039 402.63C596.226 400.026 594.994 397.379 593.258 394.947C591.546 392.51 589.295 390.349 586.826 388.694C584.347 387.053 581.673 385.874 579.06 385.15C576.442 384.41 573.873 384.039 571.404 383.898C570.78 383.852 570.175 383.844 569.566 383.834L569.11 383.827H568.541L567.81 383.842L567.08 383.857L566.185 383.899C565.577 383.936 564.915 383.956 564.354 384.017C559.727 384.391 554.937 385.402 550.353 387.359C545.776 389.3 541.457 392.203 537.973 395.799C534.456 399.377 531.777 403.545 529.791 407.815C529.561 408.314 529.342 408.815 529.129 409.318C528.514 408.627 527.882 407.944 527.212 407.28C523.632 403.734 519.112 400.641 513.952 398.864C511.389 397.966 508.704 397.403 506.04 397.163C504.702 397.048 503.394 396.99 502.055 397.034L501.398 397.07L500.679 397.124C500.272 397.173 499.865 397.217 499.457 397.28C498.641 397.412 497.824 397.579 497.017 397.807C493.771 398.688 490.759 400.423 488.409 402.529C486.033 404.635 484.274 407.055 482.92 409.482C480.239 414.372 479.052 419.325 478.475 424.12C477.415 433.728 478.855 442.933 481.703 451.569C484.584 460.196 489.046 468.243 494.78 475.263C500.507 482.289 507.52 488.247 515.265 492.82C518.052 494.473 520.931 495.94 523.869 497.243C505.722 511.712 485.371 523.474 463.823 532.03C449.916 537.498 435.534 541.725 420.882 544.525C406.228 547.291 391.322 548.742 376.436 548.852C368.89 548.894 361.674 548.644 354.431 547.859C350.82 547.486 347.233 546.991 343.68 546.364C340.12 545.767 336.605 545.003 333.121 544.153C320.254 540.989 307.986 536.059 296.79 529.493C310.835 521.892 324.471 513.593 337.749 504.756C364.312 486.946 389.466 466.864 411.954 443.729C423.188 432.166 433.749 419.84 443.258 406.601C448.02 399.99 452.495 393.134 456.65 386.051C460.783 378.955 464.561 371.609 467.917 364.03C474.609 348.876 479.483 332.653 481.543 315.849C482.056 311.652 482.41 307.427 482.55 303.186C482.573 302.125 482.614 301.065 482.621 300.004L482.617 296.564L482.515 293.642L482.458 292.181L482.425 291.437L482.359 290.591L482.082 287.211L481.932 285.529L481.721 283.92L481.285 280.704C481.137 279.634 480.902 278.57 480.713 277.503C479.965 273.234 478.832 269.023 477.579 264.859C474.958 256.553 471.194 248.589 466.549 241.211L464.726 238.493L463.809 237.14L462.83 235.828L460.868 233.215L458.782 230.699L457.735 229.447L456.631 228.244L454.42 225.845L452.101 223.553L450.936 222.414L449.722 221.329C446.544 218.366 443.054 215.776 439.543 213.259C437.731 212.078 435.97 210.823 434.09 209.76C433.158 209.215 432.241 208.647 431.297 208.126L428.44 206.615C420.782 202.668 412.65 199.738 404.331 197.759C402.237 197.335 400.162 196.801 398.048 196.495L394.888 195.975L391.711 195.596C389.597 195.291 387.467 195.22 385.343 195.034C384.28 194.976 383.216 194.962 382.152 194.926L380.556 194.881L380.157 194.87L379.602 194.869L378.871 194.875L375.948 194.897L372.665 195.04C371.546 195.08 370.489 195.167 369.442 195.26C368.389 195.359 367.33 195.419 366.282 195.552C362.074 196.001 357.915 196.725 353.782 197.55C337.272 201.039 321.724 207.682 307.468 216.093C293.159 224.487 280.189 234.817 268.342 246.216C256.53 257.664 245.931 270.315 236.622 283.899C227.325 297.49 219.316 312.037 213.005 327.449C206.664 342.839 202.011 359.116 199.766 376.076C199.208 380.313 198.827 384.596 198.617 388.911C198.492 391.065 198.453 393.234 198.42 395.404L198.411 396.348L198.414 397.079L198.421 398.541L198.434 400.002L198.441 400.734L198.463 401.539C198.568 405.892 198.756 409.977 199.074 414.161C199.392 418.327 199.802 422.494 200.36 426.653C201.46 434.969 203.088 443.251 205.193 451.441C207.355 459.621 210.039 467.696 213.305 475.574C216.583 483.445 220.458 491.102 224.905 498.445C229.378 505.772 234.461 512.751 240.072 519.291C241.547 520.993 243.057 522.665 244.601 524.307C244.056 524.521 243.513 524.742 242.967 524.953C228.914 530.379 214.581 534.942 200.174 538.216C192.976 539.844 185.759 541.144 178.608 541.98ZM538.438 484.672C536.647 484.672 529.979 482.275 522.388 477.238C516.971 473.82 512.126 469.59 508.089 464.678C500.753 456.104 495 444.642 495 430C495 420.334 497.581 413.924 503.167 413.924C504.393 413.924 505.677 414.141 506.993 414.515C507.456 414.63 507.913 414.759 508.362 414.917C509.05 415.154 509.724 415.448 510.387 415.787C521.247 420.794 532.926 434.165 532.926 434.165C532.926 434.165 542.396 401 568 401C571.539 401 574.147 401.604 576.068 402.613C576.202 402.681 576.339 402.749 576.464 402.821C576.575 402.885 576.68 402.955 576.785 403.023C576.937 403.12 577.084 403.22 577.224 403.325C579.963 405.317 580.844 408.376 580.844 411.666C581.032 414.464 580.719 417.644 580.048 420.872C580.035 420.934 580.018 420.996 580.005 421.059C574.071 455.176 538.438 484.672 538.438 484.672ZM273.334 511.743C269.584 508.138 266.055 504.304 262.77 500.266C260.583 497.547 258.499 494.744 256.519 491.865C254.547 488.979 252.71 485.998 250.95 482.969C247.44 476.901 244.397 470.538 241.794 463.97C236.572 450.836 233.139 436.87 231.314 422.585C230.832 419.018 230.478 415.423 230.2 411.816C229.922 408.227 229.758 404.521 229.669 401.081L229.596 395.523C229.61 393.794 229.618 392.066 229.705 390.327C229.836 386.854 230.117 383.362 230.537 379.865C232.103 365.859 235.698 351.813 240.611 338.138C243.091 331.305 245.881 324.542 249.045 317.93C252.153 311.29 255.655 304.817 259.383 298.465C266.878 285.782 275.619 273.778 285.466 262.786C290.41 257.315 295.62 252.076 301.156 247.237C306.677 242.38 312.458 237.833 318.548 233.786C330.697 225.679 344.003 219.364 357.947 215.962C361.431 215.131 364.947 214.448 368.485 213.984C369.367 213.848 370.255 213.783 371.14 213.678C372.032 213.575 372.916 213.481 373.744 213.436L376.299 213.254L379.222 213.163L379.952 213.141C380.068 213.139 380.087 213.138 380.086 213.137C380.091 213.137 380.098 213.138 380.128 213.139L380.46 213.145L381.786 213.168C382.67 213.189 383.557 213.184 384.439 213.222C386.199 213.365 387.973 213.384 389.722 213.625L392.352 213.93L394.961 214.361C396.709 214.607 398.414 215.052 400.139 215.405C413.802 218.74 426.519 225.698 436.218 235.576L437.141 236.485L438.015 237.441L439.763 239.35L441.407 241.348L442.228 242.345L442.996 243.385L444.533 245.459L445.96 247.611L446.675 248.683L447.333 249.793L448.648 252.008C451.984 258.021 454.528 264.448 456.312 271.098C457.147 274.442 457.914 277.806 458.352 281.246C458.464 282.105 458.622 282.953 458.7 283.818L458.953 286.409L459.085 287.702L459.15 288.935L459.283 291.387L459.318 292L459.328 292.716L459.339 294.178L459.373 297.102L459.31 299.508L459.19 302.17C458.987 305.718 458.657 309.265 458.162 312.798C456.221 326.948 451.798 340.838 445.794 354.141C439.735 367.436 432.059 380.146 423.312 392.187C414.559 404.233 404.72 415.607 394.166 426.344C383.603 437.08 372.321 447.185 360.525 456.693C348.736 466.213 336.395 475.091 323.658 483.362C307.479 493.835 290.656 503.381 273.334 511.743ZM396 670.29C311.42 670.29 235.792 631.997 185.478 571.813C192.926 570.407 200.22 568.683 207.383 566.703C223.207 562.303 238.453 556.762 253.305 550.499C258.09 548.47 262.829 546.359 267.534 544.188C267.975 544.497 268.413 544.81 268.857 545.115C272.401 547.553 276.043 549.843 279.78 551.949C294.697 560.457 310.95 566.261 327.457 569.585C331.587 570.409 335.732 571.12 339.889 571.639C344.043 572.188 348.206 572.582 352.366 572.834C356.525 573.118 360.681 573.202 364.828 573.227L367.935 573.201L369.55 573.177L371.012 573.135C372.907 573.092 375.024 572.997 377.099 572.908C393.383 572.131 409.578 570 425.451 566.387C441.326 562.818 456.876 557.839 471.817 551.465C499.006 539.902 524.27 523.88 545.993 503.842C552.612 504.984 559.275 505.493 565.872 505.498L569.102 505.427C569.63 505.406 570.05 505.422 570.666 505.371L572.406 505.25C574.774 505.123 576.929 504.812 579.144 504.542C583.543 503.868 587.896 502.882 592.151 501.595C596.412 500.32 600.534 498.652 604.53 496.779C608.527 494.9 612.375 492.749 616.035 490.361C619.701 487.981 623.219 485.411 626.557 482.662C629.886 479.903 633.058 476.993 636.085 473.966C642.111 467.888 647.566 461.36 652.492 454.533C658.396 446.38 663.605 437.848 668.296 429.086C651.959 564.968 536.287 670.29 396 670.29Z" fill="white"/>
</svg>
